<mxfile host="app.diagrams.net" agent="Mozilla/5.0 (Macintosh; Intel Mac OS X 10_15_7) AppleWebKit/537.36 (KHTML, like Gecko) Chrome/133.0.0.0 Safari/537.36" version="26.0.16">
  <diagram id="Ht1M8jgEwFfnCIfOTk4-" name="Page-1">
    <mxGraphModel dx="2087" dy="1009" grid="1" gridSize="10" guides="1" tooltips="1" connect="1" arrows="1" fold="1" page="1" pageScale="1" pageWidth="1169" pageHeight="827" math="0" shadow="0">
      <root>
        <mxCell id="0" />
        <mxCell id="1" parent="0" />
        <mxCell id="QhBnblqV0xzD-Pjf0bsg-20" style="edgeStyle=orthogonalEdgeStyle;rounded=0;orthogonalLoop=1;jettySize=auto;html=1;exitX=1;exitY=0.5;exitDx=0;exitDy=0;exitPerimeter=0;" edge="1" parent="1" source="QhBnblqV0xzD-Pjf0bsg-1" target="QhBnblqV0xzD-Pjf0bsg-4">
          <mxGeometry relative="1" as="geometry">
            <mxPoint x="440" y="320" as="targetPoint" />
            <Array as="points">
              <mxPoint x="440" y="239" />
              <mxPoint x="440" y="240" />
            </Array>
          </mxGeometry>
        </mxCell>
        <mxCell id="QhBnblqV0xzD-Pjf0bsg-1" value="HTTP API Gateway&lt;div&gt;Resources:&lt;br&gt;/list&lt;/div&gt;&lt;div&gt;/{bucket-name}&lt;/div&gt;&lt;div&gt;/{bucket-name}/{object-name}&lt;/div&gt;&lt;div&gt;Methods:&lt;/div&gt;&lt;div&gt;GET, POST, DELETE&lt;/div&gt;&lt;div&gt;Stages:&lt;/div&gt;&lt;div&gt;Dev, Prod&lt;/div&gt;&lt;div&gt;&lt;br&gt;&lt;/div&gt;" style="sketch=0;points=[[0,0,0],[0.25,0,0],[0.5,0,0],[0.75,0,0],[1,0,0],[0,1,0],[0.25,1,0],[0.5,1,0],[0.75,1,0],[1,1,0],[0,0.25,0],[0,0.5,0],[0,0.75,0],[1,0.25,0],[1,0.5,0],[1,0.75,0]];outlineConnect=0;fontColor=#232F3E;fillColor=#8C4FFF;strokeColor=#ffffff;dashed=0;verticalLabelPosition=bottom;verticalAlign=top;align=center;html=1;fontSize=12;fontStyle=0;aspect=fixed;shape=mxgraph.aws4.resourceIcon;resIcon=mxgraph.aws4.api_gateway;" vertex="1" parent="1">
          <mxGeometry x="300" y="200" width="78" height="78" as="geometry" />
        </mxCell>
        <mxCell id="QhBnblqV0xzD-Pjf0bsg-2" value="REST&amp;nbsp;&lt;span style=&quot;background-color: transparent; color: light-dark(rgb(35, 47, 62), rgb(189, 199, 212));&quot;&gt;API Gateway&lt;/span&gt;&lt;div&gt;&lt;div&gt;Resources:&lt;br&gt;/list&lt;/div&gt;&lt;div&gt;/{bucket-name}&lt;/div&gt;&lt;div&gt;/{bucket-name}/{object-name}&lt;/div&gt;&lt;div&gt;Methods:&lt;/div&gt;&lt;div&gt;GET, POST, DELETE&lt;/div&gt;&lt;div&gt;Stages:&lt;/div&gt;&lt;div&gt;Dev, Prod&lt;/div&gt;&lt;div&gt;&lt;br&gt;&lt;/div&gt;&lt;/div&gt;" style="sketch=0;points=[[0,0,0],[0.25,0,0],[0.5,0,0],[0.75,0,0],[1,0,0],[0,1,0],[0.25,1,0],[0.5,1,0],[0.75,1,0],[1,1,0],[0,0.25,0],[0,0.5,0],[0,0.75,0],[1,0.25,0],[1,0.5,0],[1,0.75,0]];outlineConnect=0;fontColor=#232F3E;fillColor=#8C4FFF;strokeColor=#ffffff;dashed=0;verticalLabelPosition=bottom;verticalAlign=top;align=center;html=1;fontSize=12;fontStyle=0;aspect=fixed;shape=mxgraph.aws4.resourceIcon;resIcon=mxgraph.aws4.api_gateway;" vertex="1" parent="1">
          <mxGeometry x="300" y="453" width="78" height="78" as="geometry" />
        </mxCell>
        <mxCell id="QhBnblqV0xzD-Pjf0bsg-36" style="edgeStyle=orthogonalEdgeStyle;rounded=0;orthogonalLoop=1;jettySize=auto;html=1;" edge="1" parent="1" source="QhBnblqV0xzD-Pjf0bsg-4" target="QhBnblqV0xzD-Pjf0bsg-8">
          <mxGeometry relative="1" as="geometry">
            <mxPoint x="840" y="380" as="targetPoint" />
          </mxGeometry>
        </mxCell>
        <mxCell id="QhBnblqV0xzD-Pjf0bsg-40" value="Operates on" style="edgeLabel;html=1;align=center;verticalAlign=middle;resizable=0;points=[];" vertex="1" connectable="0" parent="QhBnblqV0xzD-Pjf0bsg-36">
          <mxGeometry x="-0.1774" y="2" relative="1" as="geometry">
            <mxPoint as="offset" />
          </mxGeometry>
        </mxCell>
        <mxCell id="QhBnblqV0xzD-Pjf0bsg-4" value="&lt;font face=&quot;Helvetica&quot;&gt;Lambda Function HTTP&lt;/font&gt;&lt;div&gt;&lt;div&gt;&lt;p style=&quot;margin: 0px; font-variant-numeric: normal; font-variant-east-asian: normal; font-variant-alternates: normal; font-size-adjust: none; font-kerning: auto; font-optical-sizing: auto; font-feature-settings: normal; font-variation-settings: normal; font-variant-position: normal; font-variant-emoji: normal; font-stretch: normal; font-size: 11px; line-height: normal; color: rgb(0, 0, 0); text-wrap-mode: wrap;&quot; class=&quot;p1&quot;&gt;&lt;font face=&quot;Helvetica&quot;&gt;hw05-listBuckets&lt;/font&gt;&lt;/p&gt;&lt;p style=&quot;margin: 0px; font-variant-numeric: normal; font-variant-east-asian: normal; font-variant-alternates: normal; font-size-adjust: none; font-kerning: auto; font-optical-sizing: auto; font-feature-settings: normal; font-variation-settings: normal; font-variant-position: normal; font-variant-emoji: normal; font-stretch: normal; font-size: 11px; line-height: normal; color: rgb(0, 0, 0); text-wrap-mode: wrap;&quot; class=&quot;p1&quot;&gt;&lt;font face=&quot;Helvetica&quot;&gt;hw05-listObjects&lt;/font&gt;&lt;/p&gt;&lt;p style=&quot;margin: 0px; font-variant-numeric: normal; font-variant-east-asian: normal; font-variant-alternates: normal; font-size-adjust: none; font-kerning: auto; font-optical-sizing: auto; font-feature-settings: normal; font-variation-settings: normal; font-variant-position: normal; font-variant-emoji: normal; font-stretch: normal; font-size: 11px; line-height: normal; color: rgb(0, 0, 0); text-wrap-mode: wrap;&quot; class=&quot;p1&quot;&gt;&lt;font face=&quot;Helvetica&quot;&gt;hw05-addObject&lt;/font&gt;&lt;/p&gt;&lt;p style=&quot;margin: 0px; font-variant-numeric: normal; font-variant-east-asian: normal; font-variant-alternates: normal; font-size-adjust: none; font-kerning: auto; font-optical-sizing: auto; font-feature-settings: normal; font-variation-settings: normal; font-variant-position: normal; font-variant-emoji: normal; font-stretch: normal; font-size: 11px; line-height: normal; color: rgb(0, 0, 0); text-wrap-mode: wrap;&quot; class=&quot;p1&quot;&gt;&lt;font face=&quot;Helvetica&quot;&gt;hw05-deleteObject&lt;/font&gt;&lt;/p&gt;&lt;/div&gt;&lt;/div&gt;" style="sketch=0;points=[[0,0,0],[0.25,0,0],[0.5,0,0],[0.75,0,0],[1,0,0],[0,1,0],[0.25,1,0],[0.5,1,0],[0.75,1,0],[1,1,0],[0,0.25,0],[0,0.5,0],[0,0.75,0],[1,0.25,0],[1,0.5,0],[1,0.75,0]];outlineConnect=0;fontColor=#232F3E;fillColor=#ED7100;strokeColor=#ffffff;dashed=0;verticalLabelPosition=bottom;verticalAlign=top;align=center;html=1;fontSize=12;fontStyle=0;aspect=fixed;shape=mxgraph.aws4.resourceIcon;resIcon=mxgraph.aws4.lambda;" vertex="1" parent="1">
          <mxGeometry x="690" y="210" width="78" height="78" as="geometry" />
        </mxCell>
        <mxCell id="QhBnblqV0xzD-Pjf0bsg-38" style="edgeStyle=orthogonalEdgeStyle;rounded=0;orthogonalLoop=1;jettySize=auto;html=1;" edge="1" parent="1" source="QhBnblqV0xzD-Pjf0bsg-7" target="QhBnblqV0xzD-Pjf0bsg-8">
          <mxGeometry relative="1" as="geometry" />
        </mxCell>
        <mxCell id="QhBnblqV0xzD-Pjf0bsg-7" value="&lt;font face=&quot;Helvetica&quot;&gt;Lambda Function REST&lt;/font&gt;&lt;div&gt;&lt;p style=&quot;margin: 0px; font-variant-numeric: normal; font-variant-east-asian: normal; font-variant-alternates: normal; font-size-adjust: none; font-kerning: auto; font-optical-sizing: auto; font-feature-settings: normal; font-variation-settings: normal; font-variant-position: normal; font-variant-emoji: normal; font-stretch: normal; font-size: 11px; line-height: normal; color: rgb(0, 0, 0); text-wrap-mode: wrap;&quot; class=&quot;p1&quot;&gt;&lt;font face=&quot;Helvetica&quot;&gt;hw05-rest-listBuckets&lt;/font&gt;&lt;/p&gt;&lt;p style=&quot;margin: 0px; font-variant-numeric: normal; font-variant-east-asian: normal; font-variant-alternates: normal; font-size-adjust: none; font-kerning: auto; font-optical-sizing: auto; font-feature-settings: normal; font-variation-settings: normal; font-variant-position: normal; font-variant-emoji: normal; font-stretch: normal; font-size: 11px; line-height: normal; color: rgb(0, 0, 0); text-wrap-mode: wrap;&quot; class=&quot;p1&quot;&gt;&lt;font face=&quot;Helvetica&quot;&gt;hw05-rest-listObjects&lt;/font&gt;&lt;/p&gt;&lt;p style=&quot;margin: 0px; font-variant-numeric: normal; font-variant-east-asian: normal; font-variant-alternates: normal; font-size-adjust: none; font-kerning: auto; font-optical-sizing: auto; font-feature-settings: normal; font-variation-settings: normal; font-variant-position: normal; font-variant-emoji: normal; font-stretch: normal; font-size: 11px; line-height: normal; color: rgb(0, 0, 0); text-wrap-mode: wrap;&quot; class=&quot;p1&quot;&gt;&lt;font face=&quot;Helvetica&quot;&gt;hw05-rest-addObject&lt;/font&gt;&lt;/p&gt;&lt;p style=&quot;margin: 0px; font-variant-numeric: normal; font-variant-east-asian: normal; font-variant-alternates: normal; font-size-adjust: none; font-kerning: auto; font-optical-sizing: auto; font-feature-settings: normal; font-variation-settings: normal; font-variant-position: normal; font-variant-emoji: normal; font-stretch: normal; font-size: 11px; line-height: normal; color: rgb(0, 0, 0); text-wrap-mode: wrap;&quot; class=&quot;p1&quot;&gt;&lt;font face=&quot;Helvetica&quot;&gt;hw05-rest-&lt;/font&gt;&lt;span style=&quot;color: light-dark(rgb(0, 0, 0), rgb(237, 237, 237)); background-color: transparent;&quot;&gt;deleteObject&lt;/span&gt;&lt;/p&gt;&lt;/div&gt;" style="sketch=0;points=[[0,0,0],[0.25,0,0],[0.5,0,0],[0.75,0,0],[1,0,0],[0,1,0],[0.25,1,0],[0.5,1,0],[0.75,1,0],[1,1,0],[0,0.25,0],[0,0.5,0],[0,0.75,0],[1,0.25,0],[1,0.5,0],[1,0.75,0]];outlineConnect=0;fontColor=#232F3E;fillColor=#ED7100;strokeColor=#ffffff;dashed=0;verticalLabelPosition=bottom;verticalAlign=top;align=center;html=1;fontSize=12;fontStyle=0;aspect=fixed;shape=mxgraph.aws4.resourceIcon;resIcon=mxgraph.aws4.lambda;" vertex="1" parent="1">
          <mxGeometry x="740" y="450" width="78" height="78" as="geometry" />
        </mxCell>
        <mxCell id="QhBnblqV0xzD-Pjf0bsg-8" value="S3 Bucket&lt;div&gt;hw04-zhh20013-1&lt;/div&gt;" style="sketch=0;outlineConnect=0;fontColor=#232F3E;gradientColor=none;fillColor=#7AA116;strokeColor=none;dashed=0;verticalLabelPosition=bottom;verticalAlign=top;align=center;html=1;fontSize=12;fontStyle=0;aspect=fixed;pointerEvents=1;shape=mxgraph.aws4.bucket;" vertex="1" parent="1">
          <mxGeometry x="868.9999999999999" y="338" width="75" height="78" as="geometry" />
        </mxCell>
        <mxCell id="QhBnblqV0xzD-Pjf0bsg-9" value="CloudWatch Logs" style="sketch=0;points=[[0,0,0],[0.25,0,0],[0.5,0,0],[0.75,0,0],[1,0,0],[0,1,0],[0.25,1,0],[0.5,1,0],[0.75,1,0],[1,1,0],[0,0.25,0],[0,0.5,0],[0,0.75,0],[1,0.25,0],[1,0.5,0],[1,0.75,0]];points=[[0,0,0],[0.25,0,0],[0.5,0,0],[0.75,0,0],[1,0,0],[0,1,0],[0.25,1,0],[0.5,1,0],[0.75,1,0],[1,1,0],[0,0.25,0],[0,0.5,0],[0,0.75,0],[1,0.25,0],[1,0.5,0],[1,0.75,0]];outlineConnect=0;fontColor=#232F3E;fillColor=#E7157B;strokeColor=#ffffff;dashed=0;verticalLabelPosition=bottom;verticalAlign=top;align=center;html=1;fontSize=12;fontStyle=0;aspect=fixed;shape=mxgraph.aws4.resourceIcon;resIcon=mxgraph.aws4.cloudwatch_2;" vertex="1" parent="1">
          <mxGeometry x="1080" y="338" width="78" height="78" as="geometry" />
        </mxCell>
        <mxCell id="QhBnblqV0xzD-Pjf0bsg-33" style="edgeStyle=orthogonalEdgeStyle;rounded=0;orthogonalLoop=1;jettySize=auto;html=1;entryX=0;entryY=0.5;entryDx=0;entryDy=0;entryPerimeter=0;" edge="1" parent="1" source="QhBnblqV0xzD-Pjf0bsg-10" target="QhBnblqV0xzD-Pjf0bsg-4">
          <mxGeometry relative="1" as="geometry">
            <mxPoint x="640" y="250" as="targetPoint" />
            <Array as="points">
              <mxPoint x="620" y="402" />
              <mxPoint x="620" y="249" />
            </Array>
          </mxGeometry>
        </mxCell>
        <mxCell id="QhBnblqV0xzD-Pjf0bsg-35" value="Deploys" style="edgeLabel;html=1;align=center;verticalAlign=middle;resizable=0;points=[];" vertex="1" connectable="0" parent="QhBnblqV0xzD-Pjf0bsg-33">
          <mxGeometry x="-0.2073" y="-1" relative="1" as="geometry">
            <mxPoint x="-36" y="45" as="offset" />
          </mxGeometry>
        </mxCell>
        <mxCell id="QhBnblqV0xzD-Pjf0bsg-10" value="GitHub Actions" style="shape=image;html=1;verticalAlign=top;verticalLabelPosition=bottom;labelBackgroundColor=#ffffff;imageAspect=0;aspect=fixed;image=https://cdn1.iconfinder.com/data/icons/picons-social/57/github_rounded-128.png" vertex="1" parent="1">
          <mxGeometry x="440" y="338" width="128" height="128" as="geometry" />
        </mxCell>
        <mxCell id="QhBnblqV0xzD-Pjf0bsg-15" style="edgeStyle=orthogonalEdgeStyle;rounded=0;orthogonalLoop=1;jettySize=auto;html=1;exitX=1;exitY=0.3333333333333333;exitDx=0;exitDy=0;exitPerimeter=0;entryX=0;entryY=0.5;entryDx=0;entryDy=0;entryPerimeter=0;" edge="1" parent="1" source="QhBnblqV0xzD-Pjf0bsg-11" target="QhBnblqV0xzD-Pjf0bsg-1">
          <mxGeometry relative="1" as="geometry">
            <mxPoint x="160" y="240" as="targetPoint" />
            <Array as="points">
              <mxPoint x="161" y="388" />
              <mxPoint x="161" y="239" />
            </Array>
          </mxGeometry>
        </mxCell>
        <mxCell id="QhBnblqV0xzD-Pjf0bsg-17" value="Request" style="edgeLabel;html=1;align=center;verticalAlign=middle;resizable=0;points=[];" vertex="1" connectable="0" parent="QhBnblqV0xzD-Pjf0bsg-15">
          <mxGeometry x="-0.5035" relative="1" as="geometry">
            <mxPoint as="offset" />
          </mxGeometry>
        </mxCell>
        <mxCell id="QhBnblqV0xzD-Pjf0bsg-16" style="edgeStyle=orthogonalEdgeStyle;rounded=0;orthogonalLoop=1;jettySize=auto;html=1;exitX=1;exitY=0.3333333333333333;exitDx=0;exitDy=0;exitPerimeter=0;" edge="1" parent="1" source="QhBnblqV0xzD-Pjf0bsg-11" target="QhBnblqV0xzD-Pjf0bsg-2">
          <mxGeometry relative="1" as="geometry">
            <mxPoint x="160" y="510" as="targetPoint" />
            <Array as="points">
              <mxPoint x="161" y="388" />
              <mxPoint x="161" y="492" />
            </Array>
          </mxGeometry>
        </mxCell>
        <mxCell id="QhBnblqV0xzD-Pjf0bsg-30" style="edgeStyle=orthogonalEdgeStyle;rounded=0;orthogonalLoop=1;jettySize=auto;html=1;exitX=0;exitY=0.3333333333333333;exitDx=0;exitDy=0;exitPerimeter=0;entryX=0;entryY=0.75;entryDx=0;entryDy=0;" edge="1" parent="1" source="QhBnblqV0xzD-Pjf0bsg-11" target="QhBnblqV0xzD-Pjf0bsg-10">
          <mxGeometry relative="1" as="geometry">
            <Array as="points">
              <mxPoint x="30" y="388" />
              <mxPoint x="30" y="434" />
            </Array>
          </mxGeometry>
        </mxCell>
        <mxCell id="QhBnblqV0xzD-Pjf0bsg-31" value="Trigger" style="edgeLabel;html=1;align=center;verticalAlign=middle;resizable=0;points=[];" vertex="1" connectable="0" parent="QhBnblqV0xzD-Pjf0bsg-30">
          <mxGeometry x="0.038" y="3" relative="1" as="geometry">
            <mxPoint as="offset" />
          </mxGeometry>
        </mxCell>
        <mxCell id="QhBnblqV0xzD-Pjf0bsg-11" value="User" style="shape=umlActor;verticalLabelPosition=bottom;verticalAlign=top;html=1;outlineConnect=0;" vertex="1" parent="1">
          <mxGeometry x="90" y="368" width="30" height="60" as="geometry" />
        </mxCell>
        <mxCell id="QhBnblqV0xzD-Pjf0bsg-22" style="edgeStyle=orthogonalEdgeStyle;rounded=0;orthogonalLoop=1;jettySize=auto;html=1;exitX=1;exitY=0.5;exitDx=0;exitDy=0;exitPerimeter=0;entryX=0;entryY=0.5;entryDx=0;entryDy=0;entryPerimeter=0;" edge="1" parent="1" source="QhBnblqV0xzD-Pjf0bsg-2" target="QhBnblqV0xzD-Pjf0bsg-7">
          <mxGeometry relative="1" as="geometry" />
        </mxCell>
        <mxCell id="QhBnblqV0xzD-Pjf0bsg-34" style="edgeStyle=orthogonalEdgeStyle;rounded=0;orthogonalLoop=1;jettySize=auto;html=1;entryX=0;entryY=0.75;entryDx=0;entryDy=0;entryPerimeter=0;" edge="1" parent="1" source="QhBnblqV0xzD-Pjf0bsg-10" target="QhBnblqV0xzD-Pjf0bsg-7">
          <mxGeometry relative="1" as="geometry">
            <Array as="points">
              <mxPoint x="620" y="402" />
              <mxPoint x="620" y="509" />
            </Array>
          </mxGeometry>
        </mxCell>
        <mxCell id="QhBnblqV0xzD-Pjf0bsg-41" value="Operates on" style="edgeLabel;html=1;align=center;verticalAlign=middle;resizable=0;points=[];" vertex="1" connectable="0" parent="1">
          <mxGeometry x="817.9999999999999" y="489" as="geometry">
            <mxPoint x="42" y="-2" as="offset" />
          </mxGeometry>
        </mxCell>
        <mxCell id="QhBnblqV0xzD-Pjf0bsg-42" style="edgeStyle=orthogonalEdgeStyle;rounded=0;orthogonalLoop=1;jettySize=auto;html=1;entryX=0;entryY=0.5;entryDx=0;entryDy=0;entryPerimeter=0;" edge="1" parent="1" source="QhBnblqV0xzD-Pjf0bsg-8" target="QhBnblqV0xzD-Pjf0bsg-9">
          <mxGeometry relative="1" as="geometry" />
        </mxCell>
        <mxCell id="QhBnblqV0xzD-Pjf0bsg-43" value="Logs to" style="edgeLabel;html=1;align=center;verticalAlign=middle;resizable=0;points=[];" vertex="1" connectable="0" parent="QhBnblqV0xzD-Pjf0bsg-42">
          <mxGeometry x="-0.1883" relative="1" as="geometry">
            <mxPoint x="-1" as="offset" />
          </mxGeometry>
        </mxCell>
      </root>
    </mxGraphModel>
  </diagram>
</mxfile>
